<svg xmlns="http://www.w3.org/2000/svg" width="469" height="160" viewBox="0 0 469 160">
    <rect width="100%" height="100%" fill="#0A120E"></rect>
    <g transform="translate(32, 32)">
      <svg width="77" height="96" viewBox="0 0 576 720">
        <path fill-rule="evenodd" clip-rule="evenodd" fill="#F89C96" d="M162 0C72.5299 0 0 72.5299 0 162V558C0 647.47 72.5299 720 162 720H265.5V0H162ZM310.499 720V477.286C310.996 453.648 339.723 441.955 356.584 458.817L547.525 649.758C518.314 692.186 469.405 720 413.999 720H310.499ZM575.999 558V382.5H409.09C385.036 382.5 372.99 411.583 389.999 428.592L568.444 607.038C573.351 591.569 575.999 575.093 575.999 558ZM575.999 162C575.999 144.28 573.154 127.224 567.895 111.264L387.751 291.408C370.742 308.417 382.789 337.5 406.843 337.5H575.999V162ZM310.499 0V240.467C310.996 264.105 339.723 275.797 356.584 258.936L546.603 68.9166C517.291 27.2362 468.826 0 413.999 0H310.499Z"></path>
      </svg>
    </g>
    <text x="123" y="80" dominant-baseline="middle" font-family="Plus Jakarta Sans, system-ui, sans-serif" font-weight="800" font-size="56" letter-spacing="-0.02em" fill="#F89D93">Cabeceira</text>
  </svg>